<?xml version="1.0" encoding="UTF-8"?>
<svg version="1.1" xmlns="http://www.w3.org/2000/svg" width="1411" height="1411" viewBox="0 0 1411 1411">
<g transform="translate(91, 0)">
<path d="M0 0 C2.04487574 1.22399022 4.06882572 2.48362063 6.0703125 3.77734375 C7.90263434 4.82406323 9.73850487 5.86459867 11.578125 6.8984375 C13.45262576 8.00033324 15.32494807 9.1059415 17.1953125 10.21484375 C19.30433536 11.45502611 21.41372311 12.69458813 23.5234375 13.93359375 C24.60173828 14.5678125 25.68003906 15.20203125 26.79101562 15.85546875 C32.16025983 19.00218483 37.55239441 22.10892994 42.9453125 25.21484375 C44.56397217 26.14768188 44.56397217 26.14768188 46.21533203 27.09936523 C48.40614201 28.36184106 50.5970601 29.62412931 52.78808594 30.88623047 C58.21691192 34.01414523 63.64350531 37.14592823 69.0703125 40.27734375 C71.23696833 41.52736254 73.403635 42.77736253 75.5703125 44.02734375 C147.0703125 85.27734375 147.0703125 85.27734375 218.5703125 126.52734375 C219.64297363 127.14617432 220.71563477 127.76500488 221.82080078 128.40258789 C223.98588321 129.65169893 226.15092232 130.90088504 228.31591797 132.15014648 C233.75646956 135.28936684 239.19778466 138.42724938 244.640625 141.5625 C255.09237449 147.58481704 265.53330798 153.62403712 275.9453125 159.71484375 C284.62293491 164.79009498 293.33636818 169.79993142 302.0703125 174.77734375 C311.79146867 180.31736105 321.47925908 185.91109184 331.13720703 191.56079102 C341.66115875 197.71501117 352.22411387 203.80104371 362.78808594 209.88623047 C368.21691192 213.01414523 373.64350531 216.14592823 379.0703125 219.27734375 C381.23696833 220.52736254 383.403635 221.77736253 385.5703125 223.02734375 C405.0703125 234.27734375 405.0703125 234.27734375 424.5703125 245.52734375 C425.64458496 246.14697998 426.71885742 246.76661621 427.82568359 247.4050293 C429.97492452 248.64524966 432.12369406 249.88628729 434.27197266 251.12817383 C439.34250219 254.05804433 444.41740718 256.97938936 449.50946045 259.87167358 C451.91181196 261.2368804 454.31147141 262.60678046 456.7109375 263.97705078 C458.40364468 264.94111233 460.10021604 265.89837908 461.796875 266.85546875 C462.82296875 267.44199219 463.8490625 268.02851563 464.90625 268.6328125 C465.80907715 269.14481201 466.7119043 269.65681152 467.64208984 270.18432617 C470.13052821 271.81684782 472.04824319 273.60310415 474.0703125 275.77734375 C463.53167974 282.4546556 452.70886044 288.63121451 441.89453125 294.84765625 C435.60432345 298.46463671 429.33397971 302.11464235 423.0703125 305.77734375 C414.75292348 310.63859233 406.41825443 315.46875567 398.0703125 320.27734375 C385.71008732 327.39820783 373.38563923 334.57917753 361.0703125 341.77734375 C347.66413369 349.61310041 334.24110567 357.41772086 320.78613281 365.16943359 C309.52234 371.66234253 298.29478486 378.21676931 287.0703125 384.77734375 C273.66272532 392.61392358 260.23871971 400.42012983 246.78173828 408.17163086 C239.53109242 412.35061981 232.29560359 416.55468581 225.0703125 420.77734375 C216.39789993 425.84536406 207.70934781 430.884553 199.0078125 435.90234375 C197.91919922 436.53011719 196.83058594 437.15789062 195.70898438 437.8046875 C193.70105384 438.96180001 191.6900305 440.11356983 189.67529297 441.25878906 C188.0865915 442.18491119 186.51649105 443.14534779 184.98486328 444.16308594 C182.21386308 445.97707951 180.64394005 446.85269313 177.3046875 446.4140625 C172.52471154 443.99520993 167.92004779 441.33410145 163.3203125 438.58984375 C161.15663701 437.31314597 158.99256084 436.03712704 156.828125 434.76171875 C155.71211914 434.10236328 154.59611328 433.44300781 153.44628906 432.76367188 C148.0490492 429.58809019 142.6226725 426.46357815 137.1953125 423.33984375 C135.01039874 422.08076027 132.82550301 420.82164552 130.640625 419.5625 C129.55555664 418.93746582 128.47048828 418.31243164 127.35253906 417.66845703 C121.92371308 414.54054227 116.49711969 411.40875927 111.0703125 408.27734375 C108.90365667 407.02732496 106.73699 405.77732497 104.5703125 404.52734375 C30.90364583 362.02734375 -42.76302083 319.52734375 -116.4296875 277.02734375 C-117.50234863 276.40851318 -118.57500977 275.78968262 -119.68017578 275.15209961 C-121.84525821 273.90298857 -124.01029732 272.65380246 -126.17529297 271.40454102 C-131.61584456 268.26532066 -137.05715966 265.12743812 -142.5 261.9921875 C-143.58442383 261.36691162 -144.66884766 260.74163574 -145.78613281 260.09741211 C-147.9480881 258.85220467 -150.1114794 257.60948682 -152.27636719 256.36938477 C-157.7930859 253.20167984 -163.26458443 249.97844039 -168.6875 246.65234375 C-169.77788574 245.99177979 -170.86827148 245.33121582 -171.99169922 244.65063477 C-174.06879672 243.38939215 -176.13616822 242.11194615 -178.19189453 240.81616211 C-183.21752141 237.61718238 -183.21752141 237.61718238 -188.9296875 237.01953125 C-190.4146875 237.88964844 -190.4146875 237.88964844 -191.9296875 238.77734375 C-192.6834668 239.19282471 -193.43724609 239.60830566 -194.21386719 240.03637695 C-197.06796372 241.62853169 -199.8731468 243.29033969 -202.6796875 244.96484375 C-204.83812463 246.23898798 -206.99699381 247.51240055 -209.15625 248.78515625 C-210.27161133 249.44418945 -211.38697266 250.10322266 -212.53613281 250.78222656 C-218.02027129 254.00642653 -223.53846316 257.17096648 -229.0546875 260.33984375 C-240.73386683 267.06139523 -252.34682606 273.89133087 -263.9296875 280.77734375 C-259.27528052 284.87322189 -254.01187152 287.66763741 -248.6171875 290.65234375 C-240.44513871 295.22073478 -232.31764327 299.85276532 -224.2421875 304.58984375 C-215.50376458 309.71001903 -206.72961906 314.76395554 -197.9296875 319.77734375 C-188.25477966 325.28981234 -178.61686387 330.86159074 -169.0078125 336.48828125 C-161.34394776 340.9690064 -153.64282915 345.38228599 -145.9296875 349.77734375 C-136.20844244 355.31720308 -126.52073882 360.91109307 -116.86279297 366.56079102 C-106.33884125 372.71501117 -95.77588613 378.80104371 -85.21191406 384.88623047 C-79.78308808 388.01414523 -74.35649469 391.14592823 -68.9296875 394.27734375 C-66.76303167 395.52736254 -64.596365 396.77736253 -62.4296875 398.02734375 C-16.9296875 424.27734375 -16.9296875 424.27734375 28.5703125 450.52734375 C29.64297363 451.14617432 30.71563477 451.76500488 31.82080078 452.40258789 C33.98588321 453.65169893 36.15092232 454.90088504 38.31591797 456.15014648 C43.75646956 459.28936684 49.19778466 462.42724938 54.640625 465.5625 C58.96302673 468.05239085 63.28315717 470.5461537 67.6015625 473.04296875 C71.49430488 475.2935347 75.39190957 477.53509688 79.29641724 479.76515198 C82.09916445 481.36795939 84.89666114 482.97989835 87.6953125 484.58984375 C88.73961426 485.18289307 89.78391602 485.77594238 90.85986328 486.38696289 C91.80845215 486.93473389 92.75704102 487.48250488 93.734375 488.046875 C94.57436035 488.52745361 95.4143457 489.00803223 96.27978516 489.50317383 C96.87065918 489.9236499 97.4615332 490.34412598 98.0703125 490.77734375 C98.0703125 491.43734375 98.0703125 492.09734375 98.0703125 492.77734375 C96.16532705 494.086447 94.19083219 495.29448045 92.1953125 496.4609375 C91.57235291 496.82797287 90.94939331 497.19500824 90.30755615 497.57316589 C88.23237005 498.79383081 86.1513201 500.00413463 84.0703125 501.21484375 C82.61444209 502.06935499 81.1590448 502.92467276 79.70410156 503.78076172 C76.67246092 505.56362613 73.63879393 507.34296488 70.60351562 509.11962891 C63.65975086 513.18680209 56.73961395 517.29373911 49.8203125 521.40234375 C49.16308197 521.79224487 48.50585144 522.182146 47.82870483 522.5838623 C35.95357423 529.62979863 24.13339157 536.76373646 12.33984375 543.9453125 C11.31455566 544.56583496 10.28926758 545.18635742 9.23291016 545.82568359 C6.98299345 547.21412223 4.76712735 548.62372445 2.56005859 550.07666016 C1.68748665 550.64094475 1.68748665 550.64094475 0.79728699 551.21662903 C-0.82444283 552.26751964 -2.4365898 553.33315578 -4.0480957 554.3996582 C-6.9296875 555.77734375 -6.9296875 555.77734375 -9.59960938 555.6027832 C-13.03184835 554.38689888 -16.02984176 552.54861716 -19.1171875 550.65234375 C-20.64242852 549.7356457 -22.16852699 548.82037335 -23.6953125 547.90625 C-24.52998047 547.40496582 -25.36464844 546.90368164 -26.22460938 546.38720703 C-31.24129776 543.40164356 -36.30683196 540.50055754 -41.3671875 537.58984375 C-43.61591509 536.29432234 -45.86461261 534.99874873 -48.11328125 533.703125 C-49.80686768 532.72786865 -49.80686768 532.72786865 -51.53466797 531.73291016 C-57.0013873 528.58402321 -62.46543637 525.43051111 -67.9296875 522.27734375 C-70.09634061 521.02732025 -72.26300729 519.77732028 -74.4296875 518.52734375 C-78.76302083 516.02734375 -83.09635417 513.52734375 -87.4296875 511.02734375 C-88.50234863 510.40851318 -89.57500977 509.78968262 -90.68017578 509.15209961 C-92.84525821 507.90298857 -95.01029732 506.65380246 -97.17529297 505.40454102 C-102.61584456 502.26532066 -108.05715966 499.12743812 -113.5 495.9921875 C-123.95174949 489.96987046 -134.39268298 483.93065038 -144.8046875 477.83984375 C-153.48230991 472.76459252 -162.19574318 467.75475608 -170.9296875 462.77734375 C-180.65084367 457.23732645 -190.33863408 451.64359566 -199.99658203 445.99389648 C-210.52053375 439.83967633 -221.08348887 433.75364379 -231.64746094 427.66845703 C-237.07628692 424.54054227 -242.50288031 421.40875927 -247.9296875 418.27734375 C-250.09634333 417.02732496 -252.26301 415.77732497 -254.4296875 414.52734375 C-276.09635417 402.02734375 -297.76302083 389.52734375 -319.4296875 377.02734375 C-320.50234863 376.40851318 -321.57500977 375.78968262 -322.68017578 375.15209961 C-324.84525821 373.90298857 -327.01029732 372.65380246 -329.17529297 371.40454102 C-334.61584456 368.26532066 -340.05715966 365.12743812 -345.5 361.9921875 C-355.95174949 355.96987046 -366.39268298 349.93065038 -376.8046875 343.83984375 C-385.48230991 338.76459252 -394.19574318 333.75475608 -402.9296875 328.77734375 C-412.64713418 323.23944046 -422.33109786 317.64762563 -431.9855957 312.00048828 C-450.5631355 301.13749441 -469.23278168 290.43331472 -487.9296875 279.77734375 C-487.9296875 279.11734375 -487.9296875 278.45734375 -487.9296875 277.77734375 C-486.8459082 277.16028564 -486.8459082 277.16028564 -485.74023438 276.53076172 C-470.06311215 267.60034797 -454.42664958 258.60670035 -438.85644531 249.49072266 C-424.48012436 241.07455478 -410.07998695 232.70128225 -395.64550781 224.38525391 C-384.381715 217.89234497 -373.15415986 211.33791819 -361.9296875 204.77734375 C-348.52350869 196.94158709 -335.10048067 189.13696664 -321.64550781 181.38525391 C-310.381715 174.89234497 -299.15415986 168.33791819 -287.9296875 161.77734375 C-274.52210032 153.94076392 -261.09809471 146.13455767 -247.64111328 138.38305664 C-240.39046764 134.20406781 -233.15496164 130.00003035 -225.9296875 125.77734375 C-217.61216958 120.91631415 -209.27763097 116.08593272 -200.9296875 111.27734375 C-188.56946232 104.15647967 -176.24501423 96.97550997 -163.9296875 89.77734375 C-150.52350869 81.94158709 -137.10048067 74.13696664 -123.64550781 66.38525391 C-112.381715 59.89234497 -101.15415986 53.33791819 -89.9296875 46.77734375 C-77.61435963 39.57917687 -65.28982666 32.39835859 -52.9296875 25.27734375 C-44.2510238 20.27698506 -35.58258864 15.25966876 -26.9296875 10.21484375 C-25.96933594 9.65539062 -25.00898437 9.0959375 -24.01953125 8.51953125 C-23.10300781 7.98457031 -22.18648437 7.44960937 -21.2421875 6.8984375 C-19.90414062 6.14022705 -19.90414062 6.14022705 -18.5390625 5.36669922 C-15.88156089 3.81768978 -15.88156089 3.81768978 -13.4453125 1.83251953 C-8.33826086 -1.98252123 -5.88313563 -2.88796401 0 0 Z M-5.65625 129.3125 C-6.59186768 129.86663574 -7.52748535 130.42077148 -8.49145508 130.99169922 C-9.50232178 131.60158691 -10.51318848 132.21147461 -11.5546875 132.83984375 C-13.73780007 134.13622731 -15.92141061 135.4317726 -18.10546875 136.7265625 C-19.2342041 137.39864746 -20.36293945 138.07073242 -21.52587891 138.76318359 C-26.90182064 141.94432829 -32.32334272 145.04506016 -37.7421875 148.15234375 C-49.14273494 154.71015789 -60.46304345 161.3964975 -71.765625 168.12109375 C-77.79973908 171.70884132 -83.86008411 175.24998973 -89.9296875 178.77734375 C-86.99993528 181.06485335 -83.98968385 182.97713167 -80.765625 184.82421875 C-79.73937012 185.41404541 -78.71311523 186.00387207 -77.65576172 186.61157227 C-76.54990723 187.24377686 -75.44405273 187.87598145 -74.3046875 188.52734375 C-73.1393226 189.19624916 -71.97412361 189.86544371 -70.80908203 190.53491211 C-68.38770819 191.92596553 -65.96562627 193.31577333 -63.54296875 194.70458984 C-57.95817692 197.90702784 -52.38126947 201.12313688 -46.8046875 204.33984375 C-45.72735352 204.96093018 -44.65001953 205.5820166 -43.54003906 206.22192383 C-36.3641156 210.36225275 -29.20569085 214.53165515 -22.0546875 218.71484375 C-12.78404819 224.13693074 -3.47032051 229.48058387 5.86077881 234.7975769 C14.93809886 239.97113162 23.97602783 245.20876529 32.9921875 250.48828125 C40.65605224 254.9690064 48.35717085 259.38228599 56.0703125 263.77734375 C65.79155756 269.31720308 75.47926118 274.91109307 85.13720703 280.56079102 C95.64642338 286.70639419 106.19479914 292.78348024 116.74414062 298.85986328 C121.2774976 301.47326505 125.80749208 304.09245308 130.3359375 306.71435547 C132.55088198 307.99213376 134.76956685 309.26345319 136.9921875 310.52783203 C141.69858669 313.2090665 146.3403172 315.90587067 150.8359375 318.9296875 C151.54282715 319.38553223 152.2497168 319.84137695 152.97802734 320.31103516 C154.22885992 321.1241229 155.45725515 321.97369082 156.65087891 322.86865234 C158.5353186 324.1929732 158.5353186 324.1929732 162.0703125 324.77734375 C166.39693399 323.34055047 170.16524895 321.10365695 174.0703125 318.77734375 C175.08496582 318.19460693 176.09961914 317.61187012 177.14501953 317.01147461 C180.34833845 315.15261806 183.52316512 313.25136541 186.6953125 311.33984375 C189.07787051 309.91405378 191.46262267 308.49195666 193.84765625 307.0703125 C194.44912979 306.7114093 195.05060333 306.3525061 195.67030334 305.98272705 C201.8312966 302.31212799 208.04020256 298.72608265 214.2578125 295.15234375 C216.38674402 293.92712724 218.51565034 292.70186695 220.64453125 291.4765625 C221.69431152 290.87247559 222.7440918 290.26838867 223.82568359 289.64599609 C229.41268789 286.42831883 234.99412263 283.20122391 240.5703125 279.96484375 C241.59793701 279.37171387 242.62556152 278.77858398 243.68432617 278.16748047 C245.09742065 277.34594482 245.09742065 277.34594482 246.5390625 276.5078125 C247.78333008 275.78694458 247.78333008 275.78694458 249.05273438 275.05151367 C251.187667 273.80685055 251.187667 273.80685055 253.0703125 271.77734375 C246.30417059 267.07436254 239.28458753 262.99964554 232.0703125 259.02734375 C224.88138629 255.03558551 217.70394687 251.03735731 210.6328125 246.83984375 C203.66261415 242.70416406 196.65530238 238.63613308 189.6328125 234.58984375 C188.52558838 233.95183838 187.41836426 233.31383301 186.27758789 232.65649414 C184.00694182 231.34844898 181.73618892 230.04058927 179.46533203 228.73291016 C173.9986127 225.58402321 168.53456363 222.43051111 163.0703125 219.27734375 C160.90365939 218.02732025 158.73699271 216.77732028 156.5703125 215.52734375 C126.23697917 198.02734375 95.90364583 180.52734375 65.5703125 163.02734375 C64.4970874 162.40819092 63.4238623 161.78903809 62.31811523 161.15112305 C60.15871855 159.90528605 57.99937581 158.65935557 55.84008789 157.41333008 C50.31263653 154.22385422 44.78416129 151.0361749 39.25390625 147.8515625 C38.13322754 147.20582275 37.01254883 146.56008301 35.85791016 145.89477539 C33.65110419 144.62347374 31.44376042 143.35310511 29.23583984 142.08374023 C24.4000955 139.29874685 19.5784725 136.49692322 14.80078125 133.61328125 C14.01324463 133.13995361 13.22570801 132.66662598 12.41430664 132.17895508 C10.98560144 131.31676473 9.5612174 130.44735178 8.14233398 129.5690918 C2.72965739 126.30543159 -0.2701344 126.0832678 -5.65625 129.3125 Z " fill="#1156A7" transform="translate(620.9296875,130.22265625)"/>
<path d="M0 0 C1.81322256 0.93278597 3.5997186 1.91893961 5.359375 2.94921875 C6.37918457 3.54226807 7.39899414 4.13531738 8.44970703 4.74633789 C10.08335205 5.70721313 10.08335205 5.70721313 11.75 6.6875 C12.9057488 7.36182715 14.06184266 8.03556318 15.21826172 8.70874023 C17.61980548 10.10729796 20.01984804 11.50838294 22.41894531 12.91113281 C27.97231834 16.15475891 33.55059311 19.35521464 39.125 22.5625 C47.39123048 27.3266771 55.63972757 32.12003649 63.875 36.9375 C72.55262241 42.01275123 81.26605568 47.02258767 90 52 C99.72115617 57.5400173 109.40894658 63.13374809 119.06689453 68.78344727 C129.59084625 74.93766742 140.15380137 81.02369996 150.71777344 87.10888672 C156.14659942 90.23680148 161.57319281 93.36858448 167 96.5 C169.16665583 97.75001879 171.3333225 99.00001878 173.5 100.25 C238.5 137.75 303.5 175.25 368.5 212.75 C369.57266113 213.36883057 370.64532227 213.98766113 371.75048828 214.62524414 C373.91557071 215.87435518 376.08060982 217.12354129 378.24560547 218.37280273 C383.68615706 221.51202309 389.12747216 224.64990563 394.5703125 227.78515625 C405.02206199 233.80747329 415.46299548 239.84669337 425.875 245.9375 C434.55262241 251.01275123 443.26605568 256.02258767 452 261 C461.72115617 266.5400173 471.40894658 272.13374809 481.06689453 277.78344727 C491.59084625 283.93766742 502.15380137 290.02369996 512.71777344 296.10888672 C519.2235961 299.8573323 525.72644083 303.61094181 532.22973633 307.36376953 C537.75737281 310.55328795 543.28599381 313.74107821 548.81640625 316.92578125 C558.58011894 322.54975836 568.34303524 328.17477593 578.0625 333.875 C578.76511963 334.28596924 579.46773926 334.69693848 580.19165039 335.12036133 C584.87952283 337.87952283 584.87952283 337.87952283 586 339 C586.10054147 340.4962001 586.13128019 341.99713967 586.13455451 343.49671048 C586.13910783 344.47644437 586.14366114 345.45617826 586.14835244 346.46560106 C586.14827086 348.10273981 586.14827086 348.10273981 586.14818764 349.77295208 C586.15203785 350.92546757 586.15588806 352.07798306 586.15985495 353.26542327 C586.16958109 356.49313309 586.17476551 359.72081483 586.17807844 362.9485365 C586.1827302 366.44925915 586.19306346 369.94996571 586.20264852 373.45067769 C586.22074305 380.4068427 586.23329025 387.363008 586.24411704 394.31918769 C586.25327265 400.10464152 586.26475751 405.89008685 586.27774811 411.67553329 C586.28055184 412.92562758 586.28055184 412.92562758 586.28341221 414.20097629 C586.28722922 415.90051018 586.29104802 417.60004406 586.2948686 419.29957795 C586.34605667 442.29735689 586.38175634 465.29515655 586.4140625 488.29296875 C586.41538651 489.23421993 586.41671053 490.17547111 586.41807466 491.14524505 C586.47024778 528.38532115 586.51465041 565.62540809 586.54586862 602.86550785 C586.55362191 612.09531598 586.56166913 621.32512386 586.56982422 630.55493164 C586.57071816 631.57484176 586.57161211 632.59475188 586.57253314 633.64556836 C586.60174799 666.72376233 586.66275003 699.8017997 586.74120806 732.87991071 C586.82167345 766.86605618 586.87296604 800.85211711 586.88632692 834.83835864 C586.88822008 839.6353607 586.89043332 844.43236256 586.89283371 849.2293644 C586.89329402 850.17350514 586.89375432 851.11764587 586.89422858 852.09039694 C586.902479 867.30597987 586.94136473 882.52133847 586.99144951 897.73683475 C587.04107113 913.02210364 587.05789077 928.30712968 587.04102559 943.59247234 C587.03198543 952.68086783 587.04816165 961.76841351 587.10004109 970.85666975 C587.13220398 976.92232455 587.13188002 982.98740779 587.10481049 989.05308621 C587.09030627 992.51306128 587.09022266 995.97141736 587.12962742 999.43123426 C587.16452829 1003.15489317 587.14452617 1006.87427369 587.11022377 1010.59784222 C587.14525968 1012.21742223 587.14525968 1012.21742223 587.18100339 1013.86972103 C587.03450957 1020.96666812 587.03450957 1020.96666812 584.02549653 1023.97225568 C581.74153222 1025.51741366 579.47561534 1026.79150028 577 1028 C576.03118896 1028.57556641 575.06237793 1029.15113281 574.06420898 1029.74414062 C573.21673096 1030.21013672 572.36925293 1030.67613281 571.49609375 1031.15625 C570.52099854 1031.69628662 569.54590332 1032.23632324 568.54125977 1032.79272461 C567.51701904 1033.35612549 566.49277832 1033.91952637 565.4375 1034.5 C556.92564082 1039.22405984 548.46123888 1044.01501639 540.0625 1048.9375 C531.76612704 1053.79924676 523.45656863 1058.63626762 515.125 1063.4375 C514.04484619 1064.06003662 512.96469238 1064.68257324 511.85180664 1065.32397461 C509.66203666 1066.58576826 507.47217645 1067.84740534 505.28222656 1069.10888672 C499.85340062 1072.23680146 494.42677993 1075.36853731 489 1078.5 C482.47766725 1082.26363919 475.95486238 1086.02644622 469.4296875 1089.78515625 C458.97793801 1095.80747329 448.53700452 1101.84669337 438.125 1107.9375 C428.85500223 1113.35921178 419.54168248 1118.70204915 410.21154785 1124.01922607 C401.0871716 1129.22045129 391.99867226 1134.48027878 382.93310547 1139.78344727 C372.40915375 1145.93766742 361.84619863 1152.02369996 351.28222656 1158.10888672 C345.85340058 1161.23680148 340.42680719 1164.36858448 335 1167.5 C332.83334417 1168.75001879 330.6666775 1170.00001878 328.5 1171.25 C327.4275 1171.86875 326.355 1172.4875 325.25 1173.125 C133.5 1283.75 133.5 1283.75 130.24951172 1285.62524414 C128.08442929 1286.87435518 125.91939018 1288.12354129 123.75439453 1289.37280273 C118.31384294 1292.51202309 112.87252784 1295.64990563 107.4296875 1298.78515625 C96.97793801 1304.80747329 86.53700452 1310.84669337 76.125 1316.9375 C66.85839326 1322.35722847 57.54903194 1327.69914781 48.22161865 1333.01318359 C39.86907598 1337.77275554 31.54786275 1342.58305818 23.25 1347.4375 C21.29949467 1348.57164125 19.34897438 1349.70575676 17.3984375 1350.83984375 C13.9649239 1352.83938905 10.55576649 1354.87183219 7.1640625 1356.94140625 C5.73446258 1357.79441764 4.30478145 1358.64729292 2.875 1359.5 C2.25399414 1359.89243896 1.63298828 1360.28487793 0.99316406 1360.68920898 C-1.96114312 1362.42628559 -3.5580565 1363.07713712 -6.9765625 1362.48046875 C-10.50863081 1360.75094176 -13.89447851 1358.85707272 -17.25 1356.8125 C-18.76618915 1355.90501595 -20.28316888 1354.99885194 -21.80078125 1354.09375 C-22.62916504 1353.59875 -23.45754883 1353.10375 -24.31103516 1352.59375 C-29.32667865 1349.6209771 -34.38418227 1346.72060528 -39.4375 1343.8125 C-40.54319336 1343.17546143 -41.64888672 1342.53842285 -42.78808594 1341.88208008 C-45.06024082 1340.57299343 -47.33254009 1339.26415738 -49.60498047 1337.95556641 C-55.0716998 1334.80667946 -60.53574887 1331.65316736 -66 1328.5 C-68.16665311 1327.2499765 -70.33331979 1325.99997653 -72.5 1324.75 C-94.16666667 1312.25 -115.83333333 1299.75 -137.5 1287.25 C-138.57266113 1286.63116943 -139.64532227 1286.01233887 -140.75048828 1285.37475586 C-142.91557071 1284.12564482 -145.08060982 1282.87645871 -147.24560547 1281.62719727 C-152.68615706 1278.48797691 -158.12747216 1275.35009437 -163.5703125 1272.21484375 C-174.02206199 1266.19252671 -184.46299548 1260.15330663 -194.875 1254.0625 C-203.55262241 1248.98724877 -212.26605568 1243.97741233 -221 1239 C-230.72115617 1233.4599827 -240.40894658 1227.86625191 -250.06689453 1222.21655273 C-260.59084625 1216.06233258 -271.15380137 1209.97630004 -281.71777344 1203.89111328 C-287.14659942 1200.76319852 -292.57319281 1197.63141552 -298 1194.5 C-300.16665583 1193.24998121 -302.3333225 1191.99998122 -304.5 1190.75 C-369.5 1153.25 -434.5 1115.75 -499.5 1078.25 C-500.57266113 1077.63116943 -501.64532227 1077.01233887 -502.75048828 1076.37475586 C-504.91557071 1075.12564482 -507.08060982 1073.87645871 -509.24560547 1072.62719727 C-514.68615706 1069.48797691 -520.12747216 1066.35009437 -525.5703125 1063.21484375 C-537.03629372 1056.60825457 -548.48743814 1049.97773893 -559.91088867 1043.29785156 C-565.34594639 1040.12239345 -570.79000374 1036.96335507 -576.24609375 1033.82421875 C-576.84853912 1033.47747101 -577.4509845 1033.13072327 -578.07168579 1032.77346802 C-581.00938927 1031.08303604 -583.94825226 1029.39469183 -586.88867188 1027.70898438 C-588.4577832 1026.80696289 -588.4577832 1026.80696289 -590.05859375 1025.88671875 C-590.98986084 1025.35264404 -591.92112793 1024.81856934 -592.88061523 1024.26831055 C-595 1023 -595 1023 -596 1022 C-596.1053136 1020.50666047 -596.14111099 1019.00836901 -596.14951319 1017.51134419 C-596.15739743 1016.53340388 -596.16528168 1015.55546357 -596.17340484 1014.5478887 C-596.17889729 1012.91375134 -596.17889729 1012.91375134 -596.18450069 1011.2466011 C-596.19224566 1010.09618279 -596.19999063 1008.94576447 -596.20797029 1007.76048499 C-596.22855881 1004.53862116 -596.24459517 1001.31677069 -596.25869614 998.09487303 C-596.27500379 994.60035964 -596.29686712 991.10588015 -596.31792217 987.61139274 C-596.35875346 980.66735239 -596.39377759 973.72329325 -596.42685953 966.77921211 C-596.45448031 961.003637 -596.48435128 955.22807715 -596.51556206 949.45252037 C-596.8585507 885.80028733 -597.06035531 822.14749972 -597.21455566 758.4945544 C-597.2369908 749.2728978 -597.26029835 740.05124343 -597.28393555 730.82958984 C-597.28652936 729.81059504 -597.28912317 728.79160023 -597.29179559 727.7417268 C-597.37639323 694.71208329 -597.53502398 661.6833122 -597.73307193 628.65416983 C-597.93624146 594.70917071 -598.06749156 560.76464957 -598.10722179 526.8190463 C-598.11286084 522.0242886 -598.11930735 517.2295323 -598.12623787 512.43477631 C-598.12757468 511.49110753 -598.12891148 510.54743875 -598.1302888 509.57517395 C-598.15388978 494.38646505 -598.253026 479.19914451 -598.38026595 464.01098949 C-598.50653634 448.74102885 -598.55244043 433.4724925 -598.5165435 418.2020373 C-598.49763674 409.128991 -598.53997211 400.06106734 -598.67040915 390.98891305 C-598.75153149 384.92479449 -598.75237051 378.86405269 -598.68862407 372.79973648 C-598.65457379 369.34390952 -598.65474465 365.89775878 -598.75310879 362.44294801 C-599.22135027 342.48487902 -599.22135027 342.48487902 -593.82612105 336.64828271 C-588.53343282 332.49966889 -582.76651966 329.67012526 -576.57949281 327.1012747 C-573.20873707 325.66218249 -570.20008606 323.89077367 -567.078125 321.9765625 C-565.13611511 320.85816133 -563.19341594 319.74095612 -561.25 318.625 C-559.04685608 317.35680371 -556.84373165 316.08857355 -554.640625 314.8203125 C-553.54298828 314.18899414 -552.44535156 313.55767578 -551.31445312 312.90722656 C-545.87349435 309.77635076 -540.43694752 306.63783458 -535 303.5 C-532.83335502 302.24996242 -530.66668834 300.99996244 -528.5 299.75 C-527.4275 299.13125 -526.355 298.5125 -525.25 297.875 C-437.5 247.25 -437.5 247.25 -434.24951172 245.37475586 C-432.08442929 244.12564482 -429.91939018 242.87645871 -427.75439453 241.62719727 C-422.31384294 238.48797691 -416.87252784 235.35009437 -411.4296875 232.21484375 C-400.97793801 226.19252671 -390.53700452 220.15330663 -380.125 214.0625 C-370.85500223 208.64078822 -361.54168248 203.29795085 -352.21154785 197.98077393 C-343.0871716 192.77954871 -333.99867226 187.51972122 -324.93310547 182.21655273 C-314.40915375 176.06233258 -303.84619863 169.97630004 -293.28222656 163.89111328 C-287.85340058 160.76319852 -282.42680719 157.63141552 -277 154.5 C-274.83334417 153.24998121 -272.6666775 151.99998122 -270.5 150.75 C-269.4275 150.13125 -268.355 149.5125 -267.25 148.875 C-75.5 38.25 -75.5 38.25 -72.24951172 36.37475586 C-70.08442929 35.12564482 -67.91939018 33.87645871 -65.75439453 32.62719727 C-60.31384294 29.48797691 -54.87252784 26.35009437 -49.4296875 23.21484375 C-48.34526367 22.58956787 -47.26083984 21.96429199 -46.14355469 21.32006836 C-43.9815994 20.07486092 -41.8182081 18.83214307 -39.65332031 17.59204102 C-34.1366016 14.42433609 -28.66510307 11.20109664 -23.2421875 7.875 C-22.15180176 7.21443604 -21.06141602 6.55387207 -19.93798828 5.87329102 C-17.86089078 4.6120484 -15.79351928 3.3346024 -13.73779297 2.03881836 C-12.80854004 1.47815674 -11.87928711 0.91749512 -10.921875 0.33984375 C-10.11331055 -0.16168213 -9.30474609 -0.66320801 -8.47167969 -1.17993164 C-5.00306539 -2.3307688 -3.29984379 -1.45033457 0 0 Z M-12.234375 55.7890625 C-13.27062012 56.39355225 -14.30686523 56.99804199 -15.37451172 57.62084961 C-17.04537842 58.61290405 -17.04537842 58.61290405 -18.75 59.625 C-19.92284984 60.31276662 -21.09619752 60.99968492 -22.27001953 61.68579102 C-24.68242262 63.09761821 -27.09196062 64.51414595 -29.49902344 65.93505859 C-34.61372991 68.95404185 -39.74489073 71.94479197 -44.875 74.9375 C-46.3305127 75.78852295 -46.3305127 75.78852295 -47.81542969 76.65673828 C-56.10843613 81.4995181 -64.44493752 86.26431683 -72.78845215 91.01922607 C-81.9128284 96.22045129 -91.00132774 101.48027878 -100.06689453 106.78344727 C-110.59084625 112.93766742 -121.15380137 119.02369996 -131.71777344 125.10888672 C-137.14659942 128.23680148 -142.57319281 131.36858448 -148 134.5 C-150.16665583 135.75001879 -152.3333225 137.00001878 -154.5 138.25 C-155.5725 138.86875 -156.645 139.4875 -157.75 140.125 C-323.49999999 235.75 -323.49999999 235.75 -326.75048828 237.62524414 C-328.91557071 238.87435518 -331.08060982 240.12354129 -333.24560547 241.37280273 C-338.68615706 244.51202309 -344.12747216 247.64990563 -349.5703125 250.78515625 C-360.02206199 256.80747329 -370.46299548 262.84669337 -380.875 268.9375 C-390.14499777 274.35921178 -399.45831752 279.70204915 -408.78845215 285.01922607 C-417.9128284 290.22045129 -427.00132774 295.48027878 -436.06689453 300.78344727 C-446.59084625 306.93766742 -457.15380137 313.02369996 -467.71777344 319.10888672 C-473.14659942 322.23680148 -478.57319281 325.36858448 -484 328.5 C-486.16665583 329.75001879 -488.3333225 331.00001878 -490.5 332.25 C-491.5725 332.86875 -492.645 333.4875 -493.75 334.125 C-512.16666667 344.75 -530.58333333 355.375 -549 366 C-549 573.57 -549 781.14 -549 995 C-539.76 1000.28 -530.52 1005.56 -521 1011 C-508.875 1018.0625 -508.875 1018.0625 -502.984375 1021.5078125 C-493.44177067 1027.08429156 -483.85942207 1032.59211491 -474.28222656 1038.10888672 C-468.85340058 1041.23680148 -463.42680719 1044.36858448 -458 1047.5 C-455.83334417 1048.75001879 -453.6666775 1050.00001878 -451.5 1051.25 C-367 1100 -367 1100 -282.5 1148.75 C-281.42733887 1149.36883057 -280.35467773 1149.98766113 -279.24951172 1150.62524414 C-277.08442929 1151.87435518 -274.91939018 1153.12354129 -272.75439453 1154.37280273 C-267.31384294 1157.51202309 -261.87252784 1160.64990563 -256.4296875 1163.78515625 C-245.97793801 1169.80747329 -235.53700452 1175.84669337 -225.125 1181.9375 C-216.44737759 1187.01275123 -207.73394432 1192.02258767 -199 1197 C-189.27884383 1202.5400173 -179.59105342 1208.13374809 -169.93310547 1213.78344727 C-159.40915375 1219.93766742 -148.84619863 1226.02369996 -138.28222656 1232.10888672 C-132.85340058 1235.23680148 -127.42680719 1238.36858448 -122 1241.5 C-119.83334417 1242.75001879 -117.6666775 1244.00001878 -115.5 1245.25 C-102.5 1252.75 -89.5 1260.25 -76.5 1267.75 C-75.42733887 1268.36883057 -74.35467773 1268.98766113 -73.24951172 1269.62524414 C-71.08442929 1270.87435518 -68.91939018 1272.12354129 -66.75439453 1273.37280273 C-61.31384294 1276.51202309 -55.87252784 1279.64990563 -50.4296875 1282.78515625 C-49.34526367 1283.41035156 -48.26083984 1284.03554687 -47.14355469 1284.6796875 C-44.98131792 1285.92521857 -42.81792288 1287.16874126 -40.65332031 1288.41015625 C-35.14440551 1291.57631489 -29.67221281 1294.78996264 -24.2421875 1298.08984375 C-23.15180176 1298.745896 -22.06141602 1299.40194824 -20.93798828 1300.07788086 C-18.86278516 1301.32907355 -16.79553372 1302.59358241 -14.73779297 1303.87329102 C-13.80854004 1304.43072998 -12.87928711 1304.98816895 -11.921875 1305.5625 C-11.11331055 1306.05878906 -10.30474609 1306.55507812 -9.47167969 1307.06640625 C-6.20068173 1308.30191555 -4.35112006 1307.919396 -1 1307 C1.70765929 1305.77325824 1.70765929 1305.77325824 4.359375 1304.1484375 C5.37902344 1303.55224609 6.39867187 1302.95605469 7.44921875 1302.34179688 C8.53847656 1301.69275391 9.62773438 1301.04371094 10.75 1300.375 C11.90697352 1299.69497822 13.06453713 1299.01595953 14.22265625 1298.33789062 C16.62665148 1296.92932676 19.02805773 1295.51649359 21.42773438 1294.10058594 C26.9283488 1290.85983022 32.46603409 1287.68333677 38 1284.5 C40.16684034 1283.25030108 42.3335065 1282.00030011 44.5 1280.75 C213.49999998 1183.25000001 213.49999998 1183.25000001 216.75048828 1181.37475586 C218.91557071 1180.12564482 221.08060982 1178.87645871 223.24560547 1177.62719727 C228.68615706 1174.48797691 234.12747216 1171.35009437 239.5703125 1168.21484375 C250.02206199 1162.19252671 260.46299548 1156.15330663 270.875 1150.0625 C280.14499777 1144.64078822 289.45831752 1139.29795085 298.78845215 1133.98077393 C307.9128284 1128.77954871 317.00132774 1123.51972122 326.06689453 1118.21655273 C336.59084625 1112.06233258 347.15380137 1105.97630004 357.71777344 1099.89111328 C363.14659942 1096.76319852 368.57319281 1093.63141552 374 1090.5 C376.16665583 1089.24998121 378.3333225 1087.99998122 380.5 1086.75 C381.5725 1086.13125 382.645 1085.5125 383.75 1084.875 C471.5 1034.25 471.5 1034.25 474.75097656 1032.37451172 C476.91447476 1031.12628966 479.07788643 1029.87791761 481.24121094 1028.62939453 C486.70565017 1025.47594744 492.17163645 1022.32523904 497.640625 1019.1796875 C498.74792969 1018.54224609 499.85523438 1017.90480469 500.99609375 1017.24804688 C503.04498654 1016.0686422 505.09439311 1014.89012919 507.14453125 1013.71289062 C509.11732698 1012.57675993 511.07548723 1011.41486858 513.01883876 1010.2290774 C516.05285987 1008.44567812 519.15810351 1007.04445216 522.3897773 1005.65448993 C532.94945852 1000.94972914 532.94945852 1000.94972914 540.28592595 992.45629402 C542.36217663 985.00539495 541.96560306 977.31557456 541.80709839 969.65162659 C541.83389851 967.05577257 541.87027683 964.46000285 541.91537392 961.86440223 C541.99764885 956.23136707 541.99873444 950.6029287 541.94551849 944.96961021 C541.8666089 936.59362754 541.91392366 928.22160359 541.98543389 919.84572461 C542.10887882 904.88534395 542.10646399 889.92697739 542.04978089 874.96631132 C542.00038003 861.87372743 541.99113049 848.78189639 542.02182388 835.68925285 C542.0237946 834.82016609 542.02576533 833.95107933 542.02779577 833.0556566 C542.03580901 829.5275708 542.04395621 825.99948535 542.052338 822.4714004 C542.13003038 789.3864388 542.07787958 756.30277872 541.96867801 723.2179677 C541.87254854 693.83776843 541.89604682 664.45991455 542.01904297 635.07983398 C542.15692069 602.05628606 542.2165044 569.03407386 542.15287125 536.01025337 C542.14630785 532.48835685 542.13995362 528.96646 542.13370132 525.44456291 C542.13209647 524.57740969 542.13049161 523.71025646 542.12883812 522.81682587 C542.10605192 509.73451047 542.14322456 496.65324589 542.20995712 483.57110786 C542.28557819 468.69123903 542.27569515 453.81416376 542.1533234 438.93454904 C542.08728093 430.61024811 542.08687289 422.29214821 542.18213157 413.96809584 C542.24584784 407.74607996 542.18362053 401.53121924 542.07289363 395.30999612 C542.04751405 392.79811377 542.06243449 390.28542645 542.12212954 387.77412529 C542.44752226 376.52297134 542.44752226 376.52297134 539 366 C533.02470873 360.05961503 525.45757708 356.58594695 517.81774618 353.25587403 C514.15922686 351.62526605 510.80794999 349.68421879 507.375 347.625 C505.25049022 346.41580495 503.12549996 345.20745367 501 344 C491.27706078 338.46315064 481.59101098 332.86622708 471.93310547 327.21655273 C461.40915375 321.06233258 450.84619863 314.97630004 440.28222656 308.89111328 C434.85340058 305.76319852 429.42680719 302.63141552 424 299.5 C421.83334417 298.24998121 419.6666775 296.99998122 417.5 295.75 C361.16666667 263.25 304.83333333 230.75 248.5 198.25 C247.42733887 197.63116943 246.35467773 197.01233887 245.24951172 196.37475586 C243.08442929 195.12564482 240.91939018 193.87645871 238.75439453 192.62719727 C233.31384294 189.48797691 227.87252784 186.35009437 222.4296875 183.21484375 C211.97793801 177.19252671 201.53700452 171.15330663 191.125 165.0625 C182.44737759 159.98724877 173.73394432 154.97741233 165 150 C155.27884383 144.4599827 145.59105342 138.86625191 135.93310547 133.21655273 C125.40915375 127.06233258 114.84619863 120.97630004 104.28222656 114.89111328 C98.85340058 111.76319852 93.42680719 108.63141552 88 105.5 C85.83334417 104.24998121 83.6666775 102.99998122 81.5 101.75 C42.5 79.25 42.5 79.25 39.24462891 77.37133789 C37.09651689 76.1324155 34.9477624 74.89460632 32.79833984 73.65795898 C27.70682799 70.72679906 22.62277507 67.78445634 17.56085205 64.80252075 C15.16291347 63.39083046 12.76130312 61.98545523 10.359375 60.58056641 C8.66043612 59.58330076 6.96687078 58.57689872 5.2734375 57.5703125 C3.73429688 56.67119141 3.73429688 56.67119141 2.1640625 55.75390625 C0.80982178 54.95448608 0.80982178 54.95448608 -0.57177734 54.13891602 C-5.2938676 51.92410091 -8.05699838 53.32836564 -12.234375 55.7890625 Z " fill="#222584" transform="translate(619,25)"/>
<path d="M0 0 C4.12518201 0.73365403 6.94917891 1.9269549 10.55078125 4.10546875 C11.6289209 4.75185303 12.70706055 5.3982373 13.81787109 6.06420898 C14.38656921 6.40974823 14.95526733 6.75528748 15.54119873 7.11129761 C17.34475013 8.20709445 19.15324519 9.29426535 20.96337891 10.37915039 C22.83005155 11.49792845 24.69645929 12.61711388 26.56134033 13.73887634 C32.30206701 17.19108282 38.08252481 20.57289071 43.875 23.9375 C45.84779625 25.08569699 47.82044999 26.23413886 49.79296875 27.3828125 C51.29802979 28.25921387 51.29802979 28.25921387 52.83349609 29.15332031 C61.70748978 34.32856228 70.56438274 39.53312836 79.42514038 44.73098755 C83.72870252 47.25524046 88.03391457 49.77666239 92.33984375 52.296875 C104.18253223 59.22961975 116.01244259 66.18238117 127.8125 73.1875 C138.10241769 79.29574498 148.42437832 85.34634815 158.765625 91.3671875 C165.72582935 95.42021968 172.67651558 99.48941843 179.625 103.5625 C180.55212799 104.10594559 180.55212799 104.10594559 181.49798584 104.66036987 C190.21944331 109.77355375 198.92869864 114.90705696 207.62915039 120.0559082 C215.09624313 124.47220879 222.57748905 128.86416917 230.0625 133.25 C230.67070587 133.6063855 231.27891174 133.962771 231.9055481 134.32995605 C236.27004059 136.887192 240.63497304 139.4436765 245 142 C247.5078478 143.46868973 250.01566642 144.93742927 252.5234375 146.40625 C253.44845818 146.94803391 253.44845818 146.94803391 254.39216614 147.50076294 C259.21698638 150.32704629 264.03984285 153.1566672 268.86198425 155.98751831 C272.7725095 158.28237455 276.68821514 160.56821521 280.60546875 162.8515625 C282.61206603 164.02589326 284.61858133 165.2003641 286.625 166.375 C287.53757568 166.90448242 288.45015137 167.43396484 289.39038086 167.97949219 C290.2231958 168.46836914 291.05601074 168.95724609 291.9140625 169.4609375 C292.6354541 169.88165527 293.3568457 170.30237305 294.10009766 170.73583984 C297.77486891 173.18096521 299.62579004 175.85207117 301.6796875 179.734375 C302.18927002 180.68852295 302.69885254 181.6426709 303.22387695 182.62573242 C303.76874756 183.65674072 304.31361816 184.68774902 304.875 185.75 C309.26103048 193.95130563 313.70988013 202.10568928 318.3125 210.1875 C323.23176023 218.83964589 328.07538014 227.53113239 332.875 236.25 C333.37948669 237.16629684 333.37948669 237.16629684 333.89416504 238.10110474 C334.23105347 238.71299652 334.56794189 239.32488831 334.91503906 239.95532227 C335.59569093 241.19157572 336.27635499 242.42782247 336.95703125 243.6640625 C337.29399017 244.27610031 337.6309491 244.88813812 337.9781189 245.51872253 C341.49073842 251.8960953 345.0246867 258.26157277 348.5625 264.625 C349.17722168 265.73069336 349.79194336 266.83638672 350.42529297 267.97558594 C351.66378823 270.20286149 352.90239475 272.43007518 354.14111328 274.65722656 C356.63691202 279.14533746 359.13079734 283.63451002 361.62451172 288.1237793 C362.86946349 290.36491937 364.11457925 292.60596836 365.35986328 294.84692383 C368.23902843 300.02828906 371.11720242 305.21019562 373.99118042 310.3944397 C375.32032572 312.79185794 376.65013152 315.18890952 377.97998047 317.5859375 C378.89614406 319.23792856 379.81137537 320.89043654 380.7265625 322.54296875 C381.30019531 323.57679688 381.87382812 324.610625 382.46484375 325.67578125 C382.99813073 326.65376238 383.53141771 327.63174351 384.08086491 328.63936043 C385.94585642 331.99987543 385.94585642 331.99987543 388.06274319 335.06924248 C394.25984637 344.62859788 395.12353044 352.15899998 394.92407227 363.37548828 C394.92342871 365.09397529 394.92632291 366.81246658 394.93241119 368.53094292 C394.93892802 373.22103124 394.89573641 377.90950819 394.84398198 382.59926605 C394.79682715 387.67979128 394.79654361 392.76035411 394.79039001 397.84106445 C394.77338458 406.65002283 394.72705718 415.45843178 394.66064453 424.26715088 C394.5644869 437.03055632 394.51308068 449.7938386 394.47243333 462.5575273 C394.40477162 483.43699111 394.30117343 504.316119 394.17626953 525.1953125 C394.05228088 545.95566756 393.94783881 566.71599425 393.86669922 587.4765625 C393.86161044 588.77836087 393.85652165 590.08015923 393.85127866 591.42140603 C393.82579813 597.97363554 393.80070824 604.52586647 393.77583122 611.0780983 C393.72724308 623.85920147 393.67644936 636.64029576 393.62475586 649.42138672 C393.61975055 650.65959789 393.61474525 651.89780906 393.60958827 653.17354178 C393.4431739 694.11586894 393.22441431 735.05795514 393 776 C390.48601691 774.74801422 387.97259585 773.49492075 385.45947266 772.24121094 C384.40718224 771.7173732 384.40718224 771.7173732 383.33363342 771.18295288 C376.2809298 767.66257772 369.32062465 763.97636101 362.375 760.25 C361.06063665 759.54612689 359.74626475 758.84226976 358.43188477 758.13842773 C355.20285873 756.40813838 351.97581043 754.67419283 348.74920654 752.93939209 C347.15301367 752.0821743 345.55534378 751.22770826 343.95751953 750.37353516 C327.71255649 741.68756992 311.84459153 732.38877797 296 723 C295.41182495 722.65157043 294.8236499 722.30314087 294.21765137 721.94415283 C289.08032594 718.9006113 283.94413578 715.85515734 278.80932617 712.80737305 C269.64383045 707.3705783 260.443825 701.99470171 251.234375 696.6328125 C244.27417065 692.57978032 237.32348442 688.51058157 230.375 684.4375 C229.44787201 683.89405441 229.44787201 683.89405441 228.50201416 683.33963013 C219.78565148 678.22943321 211.08114423 673.09949664 202.38623047 667.95288086 C194.76978266 663.44756307 187.1360343 658.97199729 179.5 654.5 C170.99028981 649.51633972 162.48643187 644.52324508 154 639.5 C145.65772929 634.56297493 137.30115747 629.65067243 128.9375 624.75 C128.32929413 624.3936145 127.72108826 624.037229 127.0944519 623.67004395 C122.72995941 621.112808 118.36502696 618.5563235 114 616 C109.02053669 613.08383953 104.04125878 610.1673632 99.0625 607.25 C98.45373016 606.89329224 97.84496033 606.53658447 97.21774292 606.16906738 C88.59539549 601.11602817 79.9852399 596.0427524 71.38500977 590.95214844 C64.39399529 586.8168171 57.3887254 582.70605045 50.37988281 578.6010437 C40.91386772 573.0568171 31.44938384 567.51004304 22 561.9375 C21.17177734 561.45023438 20.34355469 560.96296875 19.49023438 560.4609375 C17.91724629 559.53207728 16.35300135 558.58818249 14.79971504 557.62673855 C11.96888952 555.92286006 11.96888952 555.92286006 8.71430779 554.48679447 C-0.26646958 549.96841547 -0.26646958 549.96841547 -2.18221664 544.82754326 C-2.61302625 540.80447477 -2.62141101 536.88850549 -2.49169922 532.85522461 C-2.48963931 531.29203187 -2.49334261 529.7288229 -2.50225067 528.16565418 C-2.51029111 523.83487841 -2.43668213 519.50864659 -2.35095167 515.17885303 C-2.27140593 510.4049756 -2.26915845 505.63094523 -2.25723267 500.85650635 C-2.22585974 492.39454409 -2.14690835 483.93404977 -2.0378418 475.4727478 C-1.87718894 462.94900315 -1.79062748 450.42558315 -1.72405672 437.90102255 C-1.63600673 421.41200747 -1.53245557 404.92317147 -1.39483643 388.43449402 C-1.00958547 342.01846711 -0.84521818 295.6031106 -0.73354322 249.18567762 C-0.72194346 244.38539721 -0.71006346 239.5851175 -0.69820786 234.78483772 C-0.66271912 220.38417909 -0.62741086 205.98352003 -0.59321725 191.58285825 C-0.49757899 151.36518218 -0.36982237 111.14762649 -0.23583937 70.93006229 C-0.21877176 65.8046656 -0.20184577 60.67926844 -0.1849556 55.55387115 C-0.12391934 37.03591202 -0.06239704 18.51795461 0 0 Z M102 177 C100.8951524 230.73297598 100.57584147 284.46272574 100.45155907 338.20555305 C100.44455778 341.17853959 100.43742921 344.15152579 100.43017578 347.12451172 C100.42838049 347.86284838 100.4265852 348.60118504 100.4247355 349.36189555 C100.39431399 361.46629864 100.3291113 373.57028476 100.25148933 385.67446698 C100.17173458 398.21713692 100.12590628 410.75958669 100.11253321 423.30250537 C100.10333444 430.98709131 100.06834098 438.67063432 99.99939831 446.35492049 C99.94982357 452.20147979 99.94775447 458.04744297 99.96373749 463.89421082 C99.96285694 466.28805616 99.94652032 468.68195256 99.91369247 471.07557297 C99.87123988 474.33882136 99.88409885 477.59732003 99.91098022 480.86062622 C99.88544677 481.80881513 99.85991332 482.75700403 99.83360612 483.73392594 C99.89086774 486.44044791 100.03425615 488.46773862 101 491 C103.71748863 493.60349324 106.66048515 495.3030565 110 497 C111.28716919 497.78032593 111.28716919 497.78032593 112.6003418 498.57641602 C113.29297119 498.96498779 113.98560059 499.35355957 114.69921875 499.75390625 C115.50359375 500.20854248 116.30796875 500.66317871 117.13671875 501.1315918 C117.97847656 501.6037915 118.82023437 502.07599121 119.6875 502.5625 C126.99955331 506.70336447 134.27297784 510.89991091 141.5 515.1875 C150.00693691 520.23224038 158.5286498 525.25097455 167.0625 530.25 C168.2960652 530.97281218 169.52962638 531.69563123 170.76318359 532.41845703 C176.34816424 535.6907265 181.93402211 538.96149557 187.52047729 542.23124695 C190.55560103 544.00784849 193.59040068 545.78500289 196.625 547.5625 C197.22405151 547.91337677 197.82310303 548.26425354 198.44030762 548.62576294 C208.3713648 554.44418268 218.27606666 560.30591389 228.17260742 566.18286133 C236.55324492 571.15503186 244.95205558 576.0956321 253.3996582 580.95336914 C258.23790812 583.74668187 262.99027084 586.61190327 267.66015625 589.6796875 C268.5612915 590.25944336 269.46242676 590.83919922 270.39086914 591.43652344 C272.08086477 592.53018955 273.75474842 593.64933703 275.40795898 594.79785156 C276.16020752 595.27963867 276.91245605 595.76142578 277.6875 596.2578125 C278.65236328 596.90967529 278.65236328 596.90967529 279.63671875 597.57470703 C282.59101431 598.10635815 283.5295878 597.4038965 286.14770508 596.02658081 C286.86888016 595.65149321 287.59005524 595.2764056 288.33308411 594.88995171 C288.88316635 594.59626764 289.4332486 594.30258358 290 594 C291.50853258 554.84105913 291.58432768 515.64899133 291.75568962 476.46591854 C291.8118032 463.92173865 291.89302505 451.37872661 292.03564453 438.83520508 C292.16118899 427.79166007 292.24010819 416.74892057 292.26382077 405.70467001 C292.27777561 399.89245031 292.31334751 394.08238268 292.405056 388.27082634 C293.63641279 355.08026268 293.63641279 355.08026268 279.52313232 325.96284771 C277.28777756 323.08216498 275.67226433 320.02094207 273.9765625 316.796875 C273.41839844 315.79084229 272.86023438 314.78480957 272.28515625 313.74829102 C271.73730469 312.75885498 271.18945312 311.76941895 270.625 310.75 C269.70654297 309.0947229 269.70654297 309.0947229 268.76953125 307.40600586 C265.83516423 302.11734717 262.90402643 296.82690477 259.97396851 291.53585815 C258.63773651 289.12355585 257.3004824 286.711821 255.96307373 284.3001709 C255.03635632 282.6280976 254.11116444 280.95517907 253.18603516 279.28222656 C252.03177284 277.20062197 250.86707723 275.12476437 249.69140625 273.05517578 C248.55959706 271.01079642 247.48374066 268.93447618 246.46484375 266.83154297 C242.01413152 258.10645201 236.51776704 254.52506374 228 250 C225.79680979 248.7081709 223.59888228 247.40732538 221.40625 246.09765625 C219.69968753 245.09914613 217.99310459 244.10066915 216.28533936 243.10421753 C214.42852107 242.02079316 212.57279301 240.93552049 210.71728516 239.84985352 C208.10912275 238.32402371 205.50055337 236.79889372 202.89160156 235.27441406 C196.71701255 231.66618792 190.54547718 228.05275245 184.375 224.4375 C183.77676422 224.08707642 183.17852844 223.73665283 182.56216431 223.37561035 C172.633958 217.5589065 162.7321465 211.69883113 152.83837891 205.82373047 C144.33829208 200.78083867 135.80827054 195.79101093 127.26196289 190.8269043 C120.89086072 187.12136798 114.55299181 183.36633375 108.28613281 179.48657227 C105.35855658 177.57720023 105.35855658 177.57720023 102 177 Z " fill="#0D62AF" transform="translate(107,442)"/>
<path d="M0 0 C0.34069474 28.58039626 0.62984356 57.16091052 0.85746098 85.74244118 C0.96435034 99.01307728 1.08816866 112.28315381 1.25170898 125.55322266 C1.39419137 137.118071 1.50504506 148.68271364 1.5777635 160.24821889 C1.61738543 166.37353049 1.67294671 172.49776978 1.76637459 178.62251663 C1.85379561 184.38621863 1.89895299 190.14870007 1.91156769 195.91303635 C1.92367417 198.02956658 1.95128464 200.14607299 1.99547386 202.26217651 C2.31743034 218.29385511 2.31743034 218.29385511 -0.97529507 222.55811596 C-3.29995756 224.14112454 -5.34414043 225.11166984 -8 226 C-9.28716919 226.78032593 -9.28716919 226.78032593 -10.6003418 227.57641602 C-11.29297119 227.96498779 -11.98560059 228.35355957 -12.69921875 228.75390625 C-13.50359375 229.20854248 -14.30796875 229.66317871 -15.13671875 230.1315918 C-15.97847656 230.6037915 -16.82023437 231.07599121 -17.6875 231.5625 C-24.99955424 235.70336499 -32.2729575 239.8999437 -39.5 244.1875 C-51.26213276 251.16195073 -63.0521106 258.08802859 -74.85661316 264.99047852 C-78.57407403 267.16435913 -82.28777808 269.34453218 -86 271.52734375 C-87.72900242 272.53934317 -89.45815662 273.55108334 -91.1875 274.5625 C-91.96504639 275.02156738 -92.74259277 275.48063477 -93.54370117 275.95361328 C-98.77182954 279 -98.77182954 279 -101 279 C-101.495 229.005 -101.495 229.005 -102 178 C-111.57 183.61 -121.14 189.22 -131 195 C-135.785 197.805 -140.57 200.61 -145.5 203.5 C-147.88347656 204.89734375 -150.26695312 206.2946875 -152.72265625 207.734375 C-157.02030606 210.25385374 -161.31844865 212.77248885 -165.61715698 215.29016113 C-177.08871514 222.00887326 -188.55901963 228.72928431 -200 235.5 C-208.34231931 240.43694337 -216.69884219 245.34932737 -225.0625 250.25 C-225.67070587 250.6063855 -226.27891174 250.962771 -226.9055481 251.32995605 C-231.89834093 254.25532466 -236.8917276 257.1796791 -241.88513184 260.10400391 C-245.6379108 262.3018204 -249.39047487 264.50000308 -253.14279175 266.6986084 C-254.83791723 267.69166155 -256.53332957 268.68422498 -258.22875977 269.67675781 C-260.42346526 270.96262034 -262.60182097 272.27681402 -264.76254082 273.61900043 C-267.89910514 275.48421606 -271.0701599 276.86886982 -274.45767403 278.22019482 C-285.27169437 282.89182749 -285.27169437 282.89182749 -292.25293684 291.90335298 C-294.10014913 300.06613635 -293.75938505 308.40726023 -293.46890068 316.71717989 C-293.36077614 320.51150171 -293.38149197 324.30550214 -293.38594055 328.10105896 C-293.37628484 334.66470699 -293.28644391 341.22323963 -293.14086533 347.78522682 C-292.93052509 357.27167171 -292.84307082 366.75618312 -292.78482224 376.2446365 C-292.68700649 391.64036602 -292.49092184 407.03319329 -292.23242188 422.42700195 C-291.98164279 437.37364376 -291.77753023 452.31973205 -291.63574219 467.26782227 C-291.62697528 468.19037549 -291.61820836 469.11292871 -291.60917579 470.0634381 C-291.56547786 474.69197507 -291.52269289 479.32051996 -291.4803617 483.94906962 C-291.12842201 522.30164572 -290.61674363 560.65082117 -290 599 C-288.99595123 598.39671875 -287.99190247 597.7934375 -286.95742798 597.171875 C-285.6130663 596.36456861 -284.26869527 595.55727778 -282.92431641 594.75 C-281.93649925 594.15638672 -281.93649925 594.15638672 -280.9287262 593.55078125 C-275.01994805 590.00337902 -269.08261536 586.50663941 -263.13308716 583.0279541 C-261.29848728 581.95526299 -259.46449093 580.88154585 -257.63061523 579.80761719 C-255.04774656 578.29519581 -252.46465333 576.78315921 -249.88134766 575.27148438 C-243.60711065 571.59985448 -237.3344766 567.92548963 -231.0625 564.25 C-230.45436462 563.89365479 -229.84622925 563.53730957 -229.21966553 563.17016602 C-220.59299047 558.11460532 -211.9784365 553.03892759 -203.37402344 547.94555664 C-195.24965418 543.13960217 -187.10382213 538.37054074 -178.95767212 533.60165405 C-170.01738669 528.36678596 -161.09571419 523.10177226 -152.1875 517.8125 C-141.89763331 511.7041698 -131.57562094 505.65365142 -121.234375 499.6328125 C-114.27417065 495.57978032 -107.32348442 491.51058157 -100.375 487.4375 C-99.75691467 487.07520294 -99.13882935 486.71290588 -98.50201416 486.33963013 C-89.78055669 481.22644625 -81.07130136 476.09294304 -72.37084961 470.9440918 C-61.2147932 464.34600869 -50.02741153 457.8012759 -38.84326172 451.25097656 C-32.86943671 447.75224361 -26.89621158 444.25248732 -20.92337036 440.7520752 C-19.04141337 439.64926781 -17.15926375 438.54678973 -15.27709961 437.44433594 C-14.1222243 436.76759309 -12.96735733 436.09083603 -11.8125 435.4140625 C-10.80832031 434.8257666 -9.80414062 434.2374707 -8.76953125 433.63134766 C-6.91878605 432.54119608 -5.08259256 431.425966 -3.26171875 430.28662109 C-1 429 -1 429 1 429 C1.21038231 444.15092611 1.36901711 459.30178481 1.46630955 474.45384407 C1.51268879 481.48958327 1.57589842 488.5244142 1.67895508 495.55957031 C1.77835408 502.34828163 1.83054971 509.13604859 1.85389519 515.92544174 C1.87053277 518.51634455 1.90302312 521.10719532 1.95157051 523.69769669 C2.01686272 527.32580611 2.02590423 530.95001146 2.02172852 534.57861328 C2.054086 535.65107803 2.08644348 536.72354279 2.11978149 537.82850647 C2.03082934 544.96585763 2.03082934 544.96585763 -0.96643257 547.97275257 C-3.25286303 549.51716036 -5.52361533 550.78934504 -8 552 C-9.49080078 552.90093384 -9.49080078 552.90093384 -11.01171875 553.82006836 C-12.33623047 554.57235718 -12.33623047 554.57235718 -13.6875 555.33984375 C-14.70263672 555.91992188 -15.71777344 556.5 -16.76367188 557.09765625 C-18.3656543 558.00837891 -18.3656543 558.00837891 -20 558.9375 C-28.89387419 564.02837177 -37.72838931 569.19991836 -46.5 574.5 C-56.09558527 580.29277543 -65.76762113 585.93790419 -75.48706055 591.52001953 C-83.17868928 595.94012449 -90.8310713 600.42130797 -98.46166992 604.94580078 C-106.12629393 609.48928124 -113.81099058 613.99797865 -121.5 618.5 C-130.00984104 623.48343528 -138.51356951 628.47675574 -147 633.5 C-155.34227071 638.43702507 -163.69884253 643.34932757 -172.0625 648.25 C-172.67070587 648.6063855 -173.27891174 648.962771 -173.9055481 649.32995605 C-178.89834093 652.25532466 -183.8917276 655.1796791 -188.88513184 658.10400391 C-193.23619339 660.65220484 -197.58702961 663.20078989 -201.9375 665.75 C-202.54626984 666.10670776 -203.15503967 666.46341553 -203.78225708 666.83093262 C-211.53068083 671.37181773 -219.27104088 675.92604016 -227 680.5 C-235.34231931 685.43694337 -243.69884219 690.34932737 -252.0625 695.25 C-252.67070587 695.6063855 -253.27891174 695.962771 -253.9055481 696.32995605 C-258.89834093 699.25532466 -263.8917276 702.1796791 -268.88513184 705.10400391 C-273.23619339 707.65220484 -277.58702961 710.20078989 -281.9375 712.75 C-282.54626984 713.10670776 -283.15503967 713.46341553 -283.78225708 713.83093262 C-292.4082888 718.88613098 -301.02219883 723.96144849 -309.62597656 729.05444336 C-317.13372552 733.49563731 -324.65970227 737.90542519 -332.1875 742.3125 C-341.31605332 747.65698845 -350.43259257 753.02099115 -359.53045654 758.41757202 C-361.22789979 759.42439151 -362.92571506 760.4305837 -364.62353516 761.43676758 C-369.55164805 764.3580184 -374.47702923 767.2835761 -379.39453125 770.22265625 C-380.95049137 771.14848702 -382.50647862 772.07427219 -384.0625 773 C-384.75311523 773.41564209 -385.44373047 773.83128418 -386.15527344 774.25952148 C-390.77372049 777 -390.77372049 777 -393 777 C-393.12983303 739.07492044 -393.25737854 701.14983377 -393.38218227 663.22473732 C-393.39718829 658.66528707 -393.41221177 654.10583688 -393.42724609 649.54638672 C-393.43023671 648.63933555 -393.43322732 647.73228439 -393.43630856 646.79774682 C-393.4778891 634.19727209 -393.52040334 621.59680083 -393.56370485 608.9963319 C-393.57274887 606.36035349 -393.58174972 603.72437493 -393.59073353 601.08839631 C-393.59517272 599.78594908 -393.59517272 599.78594908 -393.59970158 598.45718978 C-393.60566848 596.70612784 -393.61163343 594.9550659 -393.61759645 593.20400394 C-393.63250127 588.83479835 -393.64755467 584.46559336 -393.66290092 580.09638929 C-393.72685467 561.87955977 -393.78475584 543.66277761 -393.81563747 525.44585857 C-393.82736651 518.61482971 -393.84064225 511.7838037 -393.85433459 504.95277852 C-393.85768954 503.26623319 -393.8609636 501.57968769 -393.86415601 499.89314204 C-393.90689204 477.56068058 -394.06442866 455.23354104 -394.36739591 432.90310437 C-394.43552272 427.80524522 -394.4925502 422.70736092 -394.54137421 417.60928154 C-394.54809555 416.90748869 -394.5548169 416.20569584 -394.56174192 415.48263653 C-394.59448781 412.01353975 -394.62563203 408.54443291 -394.65553999 405.07531059 C-394.72535366 397.25445744 -394.84867128 389.43644572 -395.0127573 381.61700344 C-395.09979492 376.86425046 -395.13603453 372.11208761 -395.15827942 367.35863161 C-395.17852119 365.20918651 -395.21923528 363.05980088 -395.28396606 360.91123533 C-395.74751192 345.06589564 -391.87555136 334.58392186 -383.39663601 321.22717214 C-381.58799629 318.34299045 -379.99116551 315.38710178 -378.40625 312.375 C-377.92027344 311.47652344 -377.43429687 310.57804687 -376.93359375 309.65234375 C-376.46050781 308.77707031 -375.98742187 307.90179687 -375.5 307 C-371.34757126 299.32551122 -367.18220732 291.65830083 -363 284 C-356.63804425 272.34881082 -350.317562 260.67530449 -344 249 C-337.19904501 236.43135083 -330.39070048 223.86703582 -323.5390625 211.32592773 C-320.83724339 206.37781837 -318.14540692 201.42450493 -315.46484375 196.46484375 C-314.87638672 195.37623047 -314.28792969 194.28761719 -313.68164062 193.16601562 C-312.54520432 191.06239948 -311.40973901 188.95825839 -310.27539062 186.85351562 C-309.76041016 185.90025391 -309.24542969 184.94699219 -308.71484375 183.96484375 C-308.26230225 183.1255835 -307.80976074 182.28632324 -307.34350586 181.42163086 C-306.90014893 180.62249268 -306.45679199 179.82335449 -306 179 C-305.55551514 178.13858398 -305.11103027 177.27716797 -304.65307617 176.38964844 C-302.67507158 173.53029104 -300.88765553 172.44219127 -297.8359375 170.80078125 C-296.8054126 170.23689697 -295.7748877 169.6730127 -294.71313477 169.09204102 C-293.61155029 168.50479248 -292.50996582 167.91754395 -291.375 167.3125 C-289.07866142 166.05869295 -286.78308892 164.80348182 -284.48828125 163.546875 C-283.3688916 162.93779297 -282.24950195 162.32871094 -281.09619141 161.70117188 C-277.2051376 159.56327068 -273.37496914 157.33675681 -269.5625 155.0625 C-262.59327988 150.92519782 -255.58496382 146.85877431 -248.5625 142.8125 C-247.45527588 142.17449463 -246.34805176 141.53648926 -245.20727539 140.87915039 C-242.93662932 139.57110523 -240.66587642 138.26324552 -238.39501953 136.95556641 C-232.9283002 133.80667946 -227.46425113 130.65316736 -222 127.5 C-219.83334689 126.2499765 -217.66668021 124.99997653 -215.5 123.75 C-214.4275 123.13125 -213.355 122.5125 -212.25 121.875 C-157 90 -101.75 58.125 -46.5 26.25 C-45.42548584 25.6300415 -44.35097168 25.01008301 -43.24389648 24.37133789 C-41.09773773 23.13326257 -38.95141859 21.89546522 -36.80493164 20.65795898 C-31.69475475 17.71135093 -26.58635857 14.76176506 -21.48348999 11.80252075 C-19.05448023 10.39411938 -16.62456812 8.98727907 -14.19458008 7.58056641 C-12.46542149 6.57867794 -10.7375822 5.57451359 -9.00976562 4.5703125 C-7.97400391 3.97089844 -6.93824219 3.37148438 -5.87109375 2.75390625 C-4.95255615 2.22095947 -4.03401855 1.6880127 -3.08764648 1.13891602 C-1 0 -1 0 0 0 Z " fill="#0B66B3" transform="translate(1121,441)"/>
<path d="M0 0 C3.19243451 0.94482491 6.43554949 1.65787417 9.67849731 2.40701294 C13.3316298 3.25530481 16.97303464 4.14904129 20.61541748 5.04217529 C23.43974096 5.73387671 26.26577018 6.41828528 29.09197998 7.10223389 C30.88895993 7.54060598 32.68583897 7.97939198 34.48260498 8.41864014 C35.32721283 8.62280548 36.17182068 8.82697083 37.04202271 9.037323 C42.90680357 10.48346373 42.90680357 10.48346373 44.02166748 11.59832764 C44.14255545 14.24751794 44.19770687 16.87159657 44.2117548 19.52218914 C44.22009896 20.36671222 44.22844312 21.21123531 44.23704013 22.08135 C44.26402507 24.94829088 44.28373542 27.81523603 44.30342102 30.68223572 C44.32102185 32.74377402 44.33899943 34.80530914 44.35732406 36.86684114 C44.40640593 42.56111075 44.4486841 48.25541364 44.48955023 53.94974744 C44.51618209 57.58946204 44.54468409 61.22915722 44.5738163 64.86885262 C44.94727856 111.60066192 45.16943689 158.33328181 45.33909807 205.06623414 C45.36379133 211.83824671 45.38944676 218.61025559 45.41546631 225.38226318 C45.41832164 226.1305607 45.42117697 226.87885822 45.42411883 227.64983142 C45.51719695 251.89394121 45.69081154 276.13664035 45.90733386 300.37993652 C46.12951244 325.30193174 46.27295951 350.22315381 46.31671925 375.14613218 C46.32293434 378.66862892 46.33003211 382.19112338 46.33765984 385.71361732 C46.33913149 386.40686844 46.34060314 387.10011956 46.34211939 387.81437829 C46.36805632 398.9603827 46.47638046 410.10412553 46.6155975 421.2492269 C46.75384968 432.4619149 46.80204083 443.67234041 46.76521374 454.88605674 C46.74785709 460.96014787 46.76930584 467.02751413 46.89605713 473.10045242 C47.62237963 509.70114961 47.62237963 509.70114961 41.66843867 516.87317491 C36.09247936 521.88416478 30.01934544 524.53660475 22.89807022 526.66578257 C18.79129687 527.99722033 15.35226797 530.094083 11.72869873 532.39520264 C10.55706125 533.07573093 9.38197648 533.75036324 8.20330811 534.41864014 C6.48239418 535.40429982 4.76159068 536.39016195 3.043396 537.3805542 C1.29448432 538.38860252 -0.45711945 539.3919757 -2.20880127 540.39520264 C-3.20291016 540.96593506 -4.19701904 541.53666748 -5.22125244 542.12469482 C-7.79817033 543.50203268 -10.1796815 544.75313852 -12.97833252 545.59832764 C-15.62511791 544.420932 -17.76194819 543.22794798 -20.16583252 541.66082764 C-21.67230168 540.72636686 -23.18021453 539.794231 -24.68927002 538.86395264 C-25.52168213 538.34510498 -26.35409424 537.82625732 -27.21173096 537.29168701 C-32.50510836 534.05175888 -37.90646642 530.99624226 -43.29083252 527.91082764 C-45.43315109 526.67843501 -47.5750871 525.44537708 -49.71661377 524.21160889 C-51.09393677 523.4194397 -51.09393677 523.4194397 -52.49908447 522.61126709 C-53.25671888 522.13724963 -53.25671888 522.13724963 -54.02965903 521.65365607 C-56.0829048 520.47596776 -56.0829048 520.47596776 -58.89237046 519.57009834 C-62.65989716 517.98269818 -65.10726891 516.53255627 -67.97833252 513.59832764 C-70.32124969 507.40086574 -69.54244111 500.20241393 -69.42138672 493.69868469 C-69.42661966 491.62197429 -69.43712675 489.54527159 -69.45245671 487.46861118 C-69.47931541 481.75982306 -69.43126411 476.05373178 -69.37111998 470.34528744 C-69.31934609 464.190616 -69.33683138 458.03609928 -69.34594727 451.88127136 C-69.3522427 441.21705153 -69.31498037 430.55380103 -69.2470932 419.88986397 C-69.17607959 408.70614005 -69.12990031 397.52276724 -69.11685944 386.3388195 C-69.11603456 385.6433546 -69.11520968 384.94788969 -69.11435981 384.23135009 C-69.11029979 380.69941057 -69.1066832 377.16747075 -69.1032373 373.63553058 C-69.07803465 348.62101891 -68.9971935 323.60696578 -68.88360596 298.5927124 C-68.77338721 274.29228148 -68.68838686 249.99197604 -68.63751221 225.69134521 C-68.63593389 224.94224983 -68.63435558 224.19315445 -68.63272944 223.4213592 C-68.61690715 215.89861071 -68.60159739 208.37586124 -68.58666313 200.85311093 C-68.55622886 185.52850666 -68.52237383 170.20391058 -68.4864502 154.87931824 C-68.48480272 154.17472383 -68.48315524 153.47012942 -68.48145783 152.74418366 C-68.3710564 105.69537028 -68.1806651 58.64682609 -67.97833252 11.59832764 C-66.53536809 11.11434163 -65.09214527 10.63112592 -63.64881325 10.14823723 C-62.44331273 9.74447768 -62.44331273 9.74447768 -61.21345866 9.33256137 C-58.81642218 8.54514047 -56.41197882 7.84221378 -53.97198486 7.20037842 C-52.66419571 6.85585129 -52.66419571 6.85585129 -51.32998657 6.50436401 C-47.38059629 5.48946393 -43.42719691 4.49165337 -39.47003174 3.50750732 C-37.3997544 2.98661348 -35.33259579 2.45315638 -33.26885986 1.90692139 C-21.50048607 -1.20276858 -11.88718134 -3.69124733 0 0 Z " fill="#B12113" transform="translate(625.9783325195313,737.4016723632813)"/>
</g>
</svg>
